# AST/ASF file generated using VICON BodyLanguage
# -----------------------------------------------
:version 1.10
:name VICON
:units
  mass 1.0
  length 0.45
  angle deg
:documentation
   .ast/.asf automatically generated from VICON data using
   VICON BodyBuilder and BodyLanguage model FoxedUp or BRILLIANT.MOD
:root
   order TX TY TZ RX RY RZ
   axis XYZ
   position 0 0 0  
   orientation 0 0 0 
:bonedata
  begin
     id 1 
     name lhipjoint
     direction 0.700308 -0.549349 0.455834 
     length 2.59063 
     axis 0 0 0  XYZ
  end
  begin
     id 2 
     name lfemur
     direction 0.34202 -0.939693 0  
     length 6.31066  
     axis 0 0 20  XYZ
    dof rx ry rz
    limits (-160.0 20.0)
           (-70.0 70.0)
           (-60.0 70.0)
  end
  begin
     id 3 
     name ltibia
     direction 0.34202 -0.939693 0   
     length 7.36093   
     axis 0 0 20   XYZ
    dof rx
    limits (-10.0 170.0)
  end
  begin
     id 4 
     name lfoot
     direction 0.0905332 -0.248738 0.96433   
     length 2.0233   
     axis -90 7.62852e-016 20   XYZ
    dof rx rz
    limits (-45.0 90.0)
           (-70.0 20.0)
  end
  begin
     id 5 
     name ltoes
     direction 1.53573e-011 -4.21855e-011 1   
     length 1.01524   
     axis -90 7.62852e-016 20   XYZ
    dof rx
    limits (-90.0 20.0)
  end
  begin
     id 6 
     name rhipjoint
     direction -0.61416 -0.607328 0.503944   
     length 2.34332  
     axis 0 0 0  XYZ 
  end
  begin
     id 7 
     name rfemur
     direction -0.34202 -0.939693 0   
     length 6.58548   
     axis 0 0 -20   XYZ
    dof rx ry rz
    limits (-160.0 20.0)
           (-70.0 70.0)
           (-70.0 60.0)
  end
  begin
     id 8 
     name rtibia
     direction -0.34202 -0.939693 0   
     length 7.20707   
     axis 0 0 -20   XYZ
    dof rx
    limits (-10.0 170.0)
 end
 begin
     id 9 
     name rfoot
     direction -0.136772 -0.375778 0.916561   
     length 1.92184  
     axis -90 -7.62852e-016 -20   XYZ
    dof rx rz
    limits (-45.0 90.0)
           (-20.0 70.0)
  end
  begin
     id 10 
     name rtoes
     direction -1.53535e-011 -4.21828e-011 1   
     length 0.951089   
     axis -90 -7.62852e-016 -20   XYZ
    dof rx
    limits (-90.0 20.0)
  end
  begin
     id 11 
     name lowerback
     direction -0.0444974 0.988086 -0.147332   
     length 1.9609   
     axis 0 0 0   XYZ
    dof rx ry rz
    limits (-20.0 45.0)
           (-30.0 30.0)
           (-30.0 30.0)
  end
  begin
     id 12 
     name upperback
     direction 0.00613146 0.999513 0.0306081   
     length 1.94944   
     axis 0 0 0   XYZ
    dof rx ry rz
    limits (-20.0 45.0)
           (-30.0 30.0)
           (-30.0 30.0)
  end
  begin
     id 13 
     name thorax
     direction 0.0254621 0.994518 0.101418   
     length 2.0119   
     axis 0 0 0   XYZ
    dof rx ry rz
    limits (-20.0 45.0)
           (-30.0 30.0)
           (-30.0 30.0)
  end
  begin
     id 14 
     name lowerneck
     direction 0.0168698 0.977854 0.208608   
     length 1.6375   
     axis 0 0 0   XYZ
    dof rx ry rz
    limits (-20.0 45.0)
           (-30.0 30.0)
           (-30.0 30.0)
  end
  begin
     id 15 
     name upperneck
     direction -0.0283988 0.989338 -0.142843   
     length 1.6851   
     axis 0 0 0   XYZ
    dof rx ry rz
    limits (-20.0 45.0)
           (-30.0 30.0)
           (-30.0 30.0)
  end
  begin
     id 16
     name head
     direction -0.0129422 0.99741 -0.0707489  
     length 1.69029  
     axis 0 0 0   XYZ
    dof rx ry rz
    limits (-20.0 45.0)
           (-30.0 30.0)
           (-30.0 30.0)
  end
  begin
     id 17 
     name lclavicle
     direction 0.820295 0.564628 -0.0911715  
     length 3.16484  
     axis 0 0 0   XYZ
    dof ry rz
    limits (-20.0 10.0)
           (0.0 20.0)
  end
  begin
     id 18 
     name lhumerus
     direction 1 -4.48969e-011 1.00186e-027   
     length 5.17853   
     axis 180 -30 -90   XYZ
    dof rx ry rz
    limits (-60.0 90.0)
           (-90.0 90.0)
           (-90.0 90.0)
  end
  begin
     id 19
     name lradius
     direction 1 -4.48966e-011 -1.52922e-027   
     length 3.40399   
     axis 180 -30 -90   XYZ
    dof rx
    limits (-10.0 170.0)
  end
  begin
     id 20
     name lwrist
     direction 1 -4.48981e-011 -3.80893e-027   
     length 1.70199   
     axis 1.1049e-015 90 90   XYZ
    dof ry
    limits (-180.0 0.0)
 end
  begin
     id 21 
     name lhand
     direction 1 -4.48957e-011 -7.61786e-027   
     length 0.708964   
     axis 4.86085e-015 90 90   XYZ
    dof rx rz
    limits (-90.0 90.0)
           (-45.0 45.0)
  end
  begin
     id 22 
     name lfingers
     direction 1 -4.48929e-011 -1.52357e-026   
     length 0.571585   
     axis 9.7217e-015 90 90   XYZ
    dof rx
    limits (0.0 90.0)
  end
  begin
     id 23
     name lthumb
     direction 0.707107 -6.34905e-011 0.707107   
     length 0.820685   
     axis -90 45 2.85299e-015   XYZ
    dof rx rz
    limits (-45.0 45.0)
           (-45.0 45.0)
  end
  begin
     id 24 
     name rclavicle
     direction -0.858602 0.463947 -0.218075   
     length 3.35137  
     axis 0 0 0   XYZ 
    dof ry rz
    limits (-10.0 20.0)
           (-20.0 0.0)
  end
  begin
     id 25 
     name rhumerus
     direction -1 -4.48969e-011 -1.98511e-027  
     length 5.42351   
     axis 180 30 90   XYZ
    dof rx ry rz
    limits (-90.0 60.0)
           (-90.0 90.0)
           (-90.0 90.0)
  end
  begin
     id 26 
     name rradius
     direction -1 -4.48961e-011 -2.82624e-027   
     length 3.42066   
     axis 180 30 90   XYZ
    dof rx
    limits (-10.0 170.0)
  end
  begin
     id 27 
     name rwrist
     direction -1 -4.48966e-011 -3.80893e-027   
     length 1.71033   
     axis 1.1049e-015 -90 -90   XYZ
    dof ry
    limits (-180.0 0.0)
  end
  begin
     id 28
     name rhand
     direction -1 -4.48964e-011 -7.61786e-027   
     length 0.743608   
     axis 4.86085e-015 -90 -90   XYZ
    dof rx rz
    limits (-90.0 90.0)
           (-45.0 45.0)
  end
  begin
     id 29
     name rfingers
     direction -1 -4.48961e-011 -1.52357e-026   
     length 0.599516   
     axis 9.7217e-015 -90 -90   XYZ
    dof rx
    limits (0.0 90.0)
  end
  begin
     id 30
     name rthumb
     direction -0.707107 -6.34913e-011 0.707107   
     length 0.860789   
     axis -90 -45 -2.85299e-015   XYZ
    dof rx rz
    limits (-45.0 45.0)
           (-45.0 45.0)
  end
:hierarchy
  begin
    root lhipjoint rhipjoint lowerback
    lhipjoint lfemur
    lfemur ltibia
    ltibia lfoot
    lfoot ltoes
    rhipjoint rfemur
    rfemur rtibia
    rtibia rfoot
    rfoot rtoes
    lowerback upperback
    upperback thorax
    thorax lowerneck lclavicle rclavicle
    lowerneck upperneck
    upperneck head
    lclavicle lhumerus
    lhumerus lradius
    lradius lwrist
    lwrist lhand lthumb
    lhand lfingers
    rclavicle rhumerus
    rhumerus rradius
    rradius rwrist
    rwrist rhand rthumb
    rhand rfingers
  end

#!OML:ASF E:\mmandel\Project 1\Capture day 1\Session 2\Subject.ASF
:FULLY-SPECIFIED
:DEGREES
390
root 11.404 9.45198 -0.0779733 177.921 70.1875 139.051
lowerback 40.3345 -4.94903 -6.5767
upperback 4.77786 -7.76802 1.35418
thorax -13.1588 -2.71548 8.24853
lowerneck -20.3972 -0.926644 2.46707
upperneck -11.0846 -1.02432 -2.33248
head -0.234485 -0.263637 -1.22265
rclavicle -4.37326e-014 -3.24019e-014
rhumerus 29.8853 27.6556 -81.2758
rradius 26.8922
rwrist -27.8465
rhand -30.9372 29.1396
rfingers 7.12502
rthumb -4.22248 -0.798327
lclavicle -4.37326e-014 -3.24019e-014
lhumerus 59.2365 -6.04742 35.9771
lradius 23.1274
lwrist 6.67846
lhand -17.0967 321.466
lfingers 7.12502
lthumb 9.14201 -8.75238
rfemur -44.5808 -55.0853 1.39458
rtibia 127.769
rfoot -28.1186 1.11832
rtoes 2.14679
lfemur -94.8599 43.1786 -16.2406
ltibia 115.54
lfoot -24.2569 -26.0647
ltoes -32.1828
391
root 11.3298 9.45366 -0.0852982 177.702 69.8072 139.14
lowerback 40.3729 -5.0508 -6.30573
upperback 4.75904 -7.77779 1.35808
thorax -13.2269 -2.72368 8.12281
lowerneck -19.9566 -1.09287 2.55871
upperneck -11.4756 -1.25329 -2.21277
head -0.437833 -0.376127 -1.20684
rclavicle 6.75868e-015 -3.51849e-014
rhumerus 29.867 26.8896 -81.4751
rradius 26.579
rwrist -27.2105
rhand -30.9314 28.8143
rfingers 7.12502
rthumb -4.2169 -1.12369
lclavicle 6.75868e-015 -3.51849e-014
lhumerus 58.9997 -7.10199 34.0256
lradius 24.1631
lwrist 8.06265
lhand -17.2816 321.636
lfingers 7.12502
lthumb 8.9636 -8.57394
rfemur -43.9512 -56.2934 0.319716
rtibia 128.089
rfoot -28.0163 1.59624
rtoes 2.67196
lfemur -95.1774 42.6095 -16.4016
ltibia 115.631
lfoot -25.2927 -24.9512
ltoes -34.8828
392
root 11.2589 9.4598 -0.0885491 177.746 69.412 139.475
lowerback 40.4354 -5.08095 -5.93496
upperback 4.86651 -7.62818 1.38692
thorax -13.1879 -2.67169 7.89513
lowerneck -20.4291 -1.09643 2.65347
upperneck -11.1189 -1.28592 -2.43664
head -0.24874 -0.401304 -1.30422
rclavicle -4.21423e-014 4.21423e-014
rhumerus 30.1158 25.7359 -81.5348
rradius 26.2012
rwrist -26.4482
rhand -30.9725 28.595
rfingers 7.12502
rthumb -4.25661 -1.34226
lclavicle -4.21423e-014 4.21423e-014
lhumerus 59.0966 -7.86088 32.7662
lradius 25.1317
lwrist 8.6131
lhand -17.488 321.595
lfingers 7.12502
lthumb 8.76445 -8.60717
rfemur -43.4287 -57.4091 -0.533817
rtibia 128.386
rfoot -28.0232 1.95905
rtoes 2.34676
lfemur -95.4531 41.987 -16.5236
ltibia 115.619
lfoot -26.9839 -23.2869
ltoes -39.3692
393
root 11.1892 9.46417 -0.0912819 177.492 69.0634 139.694
lowerback 40.7496 -5.09055 -5.6582
upperback 4.8947 -7.51189 1.39766
thorax -13.3115 -2.61492 7.73174
lowerneck -20.5374 -1.13676 2.81374
upperneck -10.9433 -1.38127 -2.61332
head -0.176929 -0.461014 -1.39768
rclavicle -2.50469e-014 6.55989e-015
rhumerus 30.3134 24.975 -81.4089
rradius 25.8102
rwrist -26.1012
rhand -31.0484 28.5408
rfingers 7.12502
rthumb -4.32983 -1.39489
lclavicle -2.50469e-014 6.55989e-015
lhumerus 59.0013 -8.49089 31.9156
lradius 26.118
lwrist 8.96319
lhand -17.2964 321.5
lfingers 7.12502
lthumb 8.94936 -8.70955
rfemur -42.3064 -58.3565 -1.88265
rtibia 128.625
rfoot -28.0167 2.38352
rtoes 2.7664
lfemur -95.3135 41.4457 -16.4315
ltibia 115.585
lfoot -27.084 -23.2117
ltoes -39.8445
394
root 11.1264 9.4772 -0.0990337 177.251 68.5358 140.151
lowerback 41.3199 -5.27171 -5.19235
upperback 4.91668 -7.52308 1.39774
thorax -13.5325 -2.60899 7.52853
lowerneck -20.4123 -1.3509 2.56028
upperneck -10.9551 -1.60499 -2.28206
head -0.204242 -0.560759 -1.25635
rclavicle -1.63003e-014 -3.27995e-015
rhumerus 30.5052 24.2713 -81.4011
rradius 25.3242
rwrist -25.7218
rhand -31.0106 28.6592
rfingers 7.12502
rthumb -4.29333 -1.27728
lclavicle -1.63003e-014 -3.27995e-015
lhumerus 58.951 -9.06794 30.8362
lradius 27.1222
lwrist 10.0729
lhand -17.3916 321.535
lfingers 7.12502
lthumb 8.85749 -8.67106
rfemur -40.2247 -59.2815 -3.89165
rtibia 128.644
rfoot -27.7683 2.97104
rtoes 4.00557
lfemur -94.7901 40.6774 -16.0482
ltibia 115.502
lfoot -26.0436 -24.2917
ltoes -36.9182
395
root 11.0598 9.4899 -0.107055 177.308 68.1128 140.84
lowerback 41.7379 -5.48647 -4.63766
upperback 4.9542 -7.53122 1.38834
thorax -13.6935 -2.61354 7.25839
lowerneck -20.3399 -1.33147 2.7228
upperneck -10.8756 -1.6235 -2.56126
head -0.190827 -0.582524 -1.37676
rclavicle 7.15625e-015 -5.84427e-014
rhumerus 30.5414 23.2308 -81.8362
rradius 24.874
rwrist -24.8149
rhand -30.7527 28.534
rfingers 7.12502
rthumb -4.0443 -1.40734
lclavicle 7.15625e-015 -5.84427e-014
lhumerus 58.7963 -9.49832 30.0467
lradius 28.0746
lwrist 11.0334
lhand -17.3963 321.533
lfingers 7.12502
lthumb 8.85297 -8.67309
rfemur -38.4125 -60.041 -5.59329
rtibia 128.677
rfoot -27.5704 3.49537
rtoes 4.84073
lfemur -94.5223 40.1182 -15.7591
ltibia 115.423
lfoot -25.2202 -25.0354
ltoes -34.6343
396
root 10.9889 9.50353 -0.108768 177.198 67.8198 141.249
lowerback 42.1176 -5.4999 -4.3982
upperback 4.96808 -7.41286 1.48859
thorax -13.8327 -2.55324 7.21453
lowerneck -20.3355 -1.45932 2.75154
upperneck -10.7373 -1.80919 -2.65902
head -0.150963 -0.683352 -1.42537
rclavicle -7.99114e-014 2.67365e-014
rhumerus 30.5939 22.0856 -82.1385
rradius 24.5302
rwrist -23.8469
rhand -30.4213 28.276
rfingers 7.12502
rthumb -3.72429 -1.67116
lclavicle -7.99114e-014 2.67365e-014
lhumerus 58.5512 -9.86167 29.6965
lradius 28.9713
lwrist 11.5874
lhand -17.1992 321.46
lfingers 7.12502
lthumb 9.04309 -8.75402
rfemur -37.0911 -60.7298 -7.04901
rtibia 128.815
rfoot -27.4818 3.8793
rtoes 5.52171
lfemur -94.3434 39.6192 -15.6213
ltibia 115.289
lfoot -23.7888 -26.0388
ltoes -30.9417
397
root 10.9184 9.52096 -0.104191 176.824 67.6814 141.244
lowerback 42.3982 -5.37865 -4.38169
upperback 4.98281 -7.23529 1.55445
thorax -13.9229 -2.46398 7.21399
lowerneck -20.3288 -1.39982 2.5064
upperneck -10.5904 -1.68286 -2.85238
head -0.0979597 -0.614898 -1.43961
rclavicle 8.78628e-014 1.55052e-014
rhumerus 30.9171 21.3203 -82.0191
rradius 24.1216
rwrist -23.4943
rhand -30.2979 28.3616
rfingers 7.12502
rthumb -3.6051 -1.58765
lclavicle 8.78628e-014 1.55052e-014
lhumerus 58.3972 -10.1708 29.2212
lradius 29.8846
lwrist 12.4185
lhand -17.3323 321.478
lfingers 7.12502
lthumb 8.91469 -8.7304
rfemur -36.5073 -61.3118 -8.08448
rtibia 129.053
rfoot -27.3771 4.06815
rtoes 5.44576
lfemur -94.2058 39.2435 -15.6366
ltibia 115.111
lfoot -22.9417 -26.7659
ltoes -28.4895
398
root 10.843 9.53883 -0.106948 176.335 67.4603 141.241
lowerback 42.8513 -5.34278 -4.24441
upperback 5.0063 -7.10719 1.58951
thorax -14.068 -2.3935 7.14672
lowerneck -20.3874 -1.64918 2.40274
upperneck -10.6227 -1.98743 -2.69495
head -0.107332 -0.761159 -1.38798
rclavicle 2.68856e-014 1.72943e-014
rhumerus 31.2269 20.7642 -81.7073
rradius 23.8115
rwrist -23.4321
rhand -30.2868 28.6144
rfingers 7.12502
rthumb -3.59447 -1.33502
lclavicle 2.68856e-014 1.72943e-014
lhumerus 58.3291 -10.452 28.6416
lradius 30.7392
lwrist 13.381
lhand -17.8908 321.59
lfingers 7.12502
lthumb 8.37573 -8.59579
rfemur -35.4443 -61.9394 -9.68782
rtibia 129.299
rfoot -27.1108 4.29784
rtoes 5.53754
lfemur -93.9426 38.7355 -15.6308
ltibia 114.989
lfoot -22.8132 -27.0182
ltoes -27.987
399
root 10.7689 9.55563 -0.112136 176.264 67.2218 141.679
lowerback 43.2667 -5.41882 -3.90763
upperback 5.01964 -7.02885 1.61019
thorax -14.2281 -2.35393 6.98217
lowerneck -20.4154 -1.55924 2.5172
upperneck -10.3729 -1.90252 -2.88183
head -0.0182732 -0.731787 -1.46673
rclavicle 6.96865e-014 1.32968e-014
rhumerus 31.3058 19.8986 -81.8671
rradius 23.5932
rwrist -22.7925
rhand -30.2465 28.7753
rfingers 7.12502
rthumb -3.55551 -1.17479
lclavicle 6.96865e-014 1.32968e-014
lhumerus 58.1666 -10.7828 27.8169
lradius 31.6502
lwrist 14.4957
lhand -18.3259 321.751
lfingers 7.12502
lthumb 7.95577 -8.41872
rfemur -34.2349 -62.4452 -11.1166
rtibia 129.444
rfoot -27.1786 4.70762
rtoes 4.80849
lfemur -93.6977 38.2916 -15.4384
ltibia 114.914
lfoot -22.215 -27.7778
ltoes -26.1063
400
root 10.6916 9.5718 -0.112473 176.322 67.0678 142.082
lowerback 43.4984 -5.40772 -3.68003
upperback 5.04586 -6.89186 1.64423
thorax -14.3066 -2.29394 6.85052
lowerneck -20.0785 -1.67193 2.24242
upperneck -10.7662 -1.98231 -2.84056
head -0.201961 -0.750196 -1.40227
rclavicle 1.12711e-013 -2.62396e-014
rhumerus 31.5679 19.0486 -81.9373
rradius 23.3409
rwrist -22.2019
rhand -30.1493 28.5684
rfingers 7.12502
rthumb -3.46167 -1.3832
lclavicle 1.12711e-013 -2.62396e-014
lhumerus 58.0819 -11.0834 26.7329
lradius 32.6547
lwrist 16.0286
lhand -18.5774 322.004
lfingers 7.12502
lthumb 7.71302 -8.15675
rfemur -33.604 -62.8994 -12.0341
rtibia 129.624
rfoot -27.2978 5.0535
rtoes 3.76404
lfemur -93.6927 37.9198 -15.3512
ltibia 114.828
lfoot -22.3801 -28.027
ltoes -26.2594
401
root 10.6054 9.58626 -0.114268 176.216 66.9359 142.223
lowerback 43.7636 -5.3429 -3.53076
upperback 5.01998 -6.73107 1.6872
thorax -14.4498 -2.2176 6.76388
lowerneck -20.0666 -1.74338 2.34704
upperneck -10.6751 -2.09971 -2.70176
head -0.176833 -0.81511 -1.38207
rclavicle -3.11098e-014 -4.08502e-014
rhumerus 31.9478 18.4714 -81.6298
rradius 23.1162
rwrist -22.0143
rhand -29.9799 28.037
rfingers 7.12502
rthumb -3.29802 -1.9172
lclavicle -3.11098e-014 -4.08502e-014
lhumerus 57.9255 -11.2331 26.4949
lradius 33.4596
lwrist 16.9024
lhand -18.7829 322.094
lfingers 7.12502
lthumb 7.51474 -8.05938
rfemur -33.004 -63.4567 -13.1973
rtibia 129.882
rfoot -27.1176 6.04333
rtoes 4.337
lfemur -93.8879 37.3978 -15.4954
ltibia 114.756
lfoot -23.8307 -27.0376
ltoes -29.6187
